<mxfile host="65bd71144e">
    <diagram id="hmq5evQjKPxmvmk7uH-i" name="Page-1">
        <mxGraphModel dx="1622" dy="711" grid="1" gridSize="10" guides="1" tooltips="1" connect="1" arrows="1" fold="1" page="1" pageScale="1" pageWidth="850" pageHeight="1100" background="#FFFFFF" math="0" shadow="0">
            <root>
                <mxCell id="0"/>
                <mxCell id="1" parent="0"/>
                <mxCell id="8" style="edgeStyle=none;html=1;exitX=1;exitY=0.5;exitDx=0;exitDy=0;entryX=0;entryY=0.5;entryDx=0;entryDy=0;endArrow=none;endFill=0;labelBorderColor=none;fontStyle=1;fontColor=#FFFFFF;" edge="1" parent="1" source="2" target="7">
                    <mxGeometry relative="1" as="geometry"/>
                </mxCell>
                <mxCell id="68" value="0..n" style="edgeLabel;html=1;align=center;verticalAlign=middle;resizable=0;points=[];labelBorderColor=none;fontStyle=1;fontColor=#FFFFFF;labelBackgroundColor=#26272c;" vertex="1" connectable="0" parent="8">
                    <mxGeometry x="-0.45" relative="1" as="geometry">
                        <mxPoint as="offset"/>
                    </mxGeometry>
                </mxCell>
                <mxCell id="2" value="Links" style="rounded=0;whiteSpace=wrap;html=1;labelBorderColor=none;fontStyle=1;strokeColor=#000000;fontColor=#FFFFFF;fillColor=#26272c;" vertex="1" parent="1">
                    <mxGeometry x="-140" y="320" width="120" height="60" as="geometry"/>
                </mxCell>
                <mxCell id="14" style="edgeStyle=none;html=1;exitX=1;exitY=0.5;exitDx=0;exitDy=0;entryX=0;entryY=0.5;entryDx=0;entryDy=0;endArrow=none;endFill=0;labelBorderColor=none;fontStyle=1;fontColor=#FFFFFF;" edge="1" parent="1" source="3" target="10">
                    <mxGeometry relative="1" as="geometry"/>
                </mxCell>
                <mxCell id="77" value="0..n" style="edgeLabel;html=1;align=center;verticalAlign=middle;resizable=0;points=[];fontColor=#FFFFFF;labelBackgroundColor=#26272c;" vertex="1" connectable="0" parent="14">
                    <mxGeometry x="-0.6513" relative="1" as="geometry">
                        <mxPoint as="offset"/>
                    </mxGeometry>
                </mxCell>
                <mxCell id="18" style="edgeStyle=none;html=1;exitX=0.5;exitY=1;exitDx=0;exitDy=0;entryX=0.5;entryY=0;entryDx=0;entryDy=0;endArrow=none;endFill=0;labelBorderColor=none;fontStyle=1;fontColor=#FFFFFF;" edge="1" parent="1" source="3" target="17">
                    <mxGeometry relative="1" as="geometry"/>
                </mxCell>
                <mxCell id="70" value="1..n" style="edgeLabel;html=1;align=center;verticalAlign=middle;resizable=0;points=[];labelBorderColor=none;fontStyle=1;fontColor=#FFFFFF;labelBackgroundColor=#26272c;" vertex="1" connectable="0" parent="18">
                    <mxGeometry x="-0.6095" y="1" relative="1" as="geometry">
                        <mxPoint as="offset"/>
                    </mxGeometry>
                </mxCell>
                <mxCell id="3" value="Skills" style="rounded=0;whiteSpace=wrap;html=1;labelBorderColor=none;fontStyle=1;strokeColor=#000000;fontColor=#FFFFFF;fillColor=#26272c;" vertex="1" parent="1">
                    <mxGeometry x="-310" y="450" width="120" height="60" as="geometry"/>
                </mxCell>
                <mxCell id="23" style="edgeStyle=none;html=1;exitX=0.5;exitY=1;exitDx=0;exitDy=0;entryX=0.5;entryY=0;entryDx=0;entryDy=0;endArrow=none;endFill=0;labelBorderColor=none;fontStyle=1;fontColor=#FFFFFF;" edge="1" parent="1" source="4" target="22">
                    <mxGeometry relative="1" as="geometry"/>
                </mxCell>
                <mxCell id="4" value="Projects" style="rounded=0;whiteSpace=wrap;html=1;labelBorderColor=none;fontStyle=1;strokeColor=#000000;fontColor=#FFFFFF;fillColor=#26272c;" vertex="1" parent="1">
                    <mxGeometry x="30" y="450" width="120" height="60" as="geometry"/>
                </mxCell>
                <mxCell id="5" value="Images" style="rounded=0;whiteSpace=wrap;html=1;labelBorderColor=none;fontStyle=1;strokeColor=#000000;fontColor=#FFFFFF;fillColor=#26272c;" vertex="1" parent="1">
                    <mxGeometry x="200" y="730" width="120" height="60" as="geometry"/>
                </mxCell>
                <mxCell id="9" style="edgeStyle=none;html=1;exitX=0.5;exitY=1;exitDx=0;exitDy=0;entryX=0.5;entryY=0;entryDx=0;entryDy=0;endArrow=none;endFill=0;labelBorderColor=none;fontStyle=1;fontColor=#FFFFFF;" edge="1" parent="1" source="7" target="4">
                    <mxGeometry relative="1" as="geometry"/>
                </mxCell>
                <mxCell id="69" value="1..n" style="edgeLabel;html=1;align=center;verticalAlign=middle;resizable=0;points=[];labelBorderColor=none;fontStyle=1;fontColor=#FFFFFF;labelBackgroundColor=#26272c;" vertex="1" connectable="0" parent="9">
                    <mxGeometry x="0.5944" y="2" relative="1" as="geometry">
                        <mxPoint x="-2" y="-7" as="offset"/>
                    </mxGeometry>
                </mxCell>
                <mxCell id="7" value="use" style="rhombus;whiteSpace=wrap;html=1;labelBorderColor=none;fontStyle=1;strokeColor=#000000;fontColor=#FFFFFF;fillColor=#26272c;" vertex="1" parent="1">
                    <mxGeometry x="50" y="310" width="80" height="80" as="geometry"/>
                </mxCell>
                <mxCell id="15" style="edgeStyle=none;html=1;exitX=1;exitY=0.5;exitDx=0;exitDy=0;entryX=0;entryY=0.5;entryDx=0;entryDy=0;endArrow=none;endFill=0;labelBorderColor=none;fontStyle=1;fontColor=#FFFFFF;" edge="1" parent="1" source="10" target="4">
                    <mxGeometry relative="1" as="geometry"/>
                </mxCell>
                <mxCell id="78" value="0..n" style="edgeLabel;html=1;align=center;verticalAlign=middle;resizable=0;points=[];fontColor=#FFFFFF;labelBackgroundColor=#26272c;" vertex="1" connectable="0" parent="15">
                    <mxGeometry x="0.6308" relative="1" as="geometry">
                        <mxPoint x="-1" as="offset"/>
                    </mxGeometry>
                </mxCell>
                <mxCell id="10" value="use" style="rhombus;whiteSpace=wrap;html=1;labelBorderColor=none;fontStyle=1;strokeColor=#000000;fontColor=#FFFFFF;fillColor=#26272c;" vertex="1" parent="1">
                    <mxGeometry x="-120" y="440" width="80" height="80" as="geometry"/>
                </mxCell>
                <mxCell id="12" style="edgeStyle=none;html=1;exitX=1;exitY=0.5;exitDx=0;exitDy=0;entryX=0;entryY=0.5;entryDx=0;entryDy=0;endArrow=none;endFill=0;labelBorderColor=none;fontStyle=1;fontColor=#FFFFFF;" edge="1" parent="1" target="2">
                    <mxGeometry relative="1" as="geometry">
                        <mxPoint x="-220" y="349.9999999999999" as="sourcePoint"/>
                    </mxGeometry>
                </mxCell>
                <mxCell id="66" value="0..n" style="edgeLabel;html=1;align=center;verticalAlign=middle;resizable=0;points=[];labelBorderColor=none;fontStyle=1;fontColor=#FFFFFF;labelBackgroundColor=#26272c;" vertex="1" connectable="0" parent="12">
                    <mxGeometry x="0.5792" relative="1" as="geometry">
                        <mxPoint as="offset"/>
                    </mxGeometry>
                </mxCell>
                <mxCell id="13" style="edgeStyle=none;html=1;exitX=0.5;exitY=1;exitDx=0;exitDy=0;entryX=0.5;entryY=0;entryDx=0;entryDy=0;endArrow=none;endFill=0;labelBorderColor=none;fontStyle=1;fontColor=#FFFFFF;" edge="1" parent="1" source="11" target="3">
                    <mxGeometry relative="1" as="geometry"/>
                </mxCell>
                <mxCell id="67" value="1..n" style="edgeLabel;html=1;align=center;verticalAlign=middle;resizable=0;points=[];labelBorderColor=none;fontStyle=1;fontColor=#FFFFFF;labelBackgroundColor=#26272c;" vertex="1" connectable="0" parent="13">
                    <mxGeometry x="0.5389" y="1" relative="1" as="geometry">
                        <mxPoint as="offset"/>
                    </mxGeometry>
                </mxCell>
                <mxCell id="11" value="use" style="rhombus;whiteSpace=wrap;html=1;labelBorderColor=none;fontStyle=1;strokeColor=#000000;fontColor=#FFFFFF;fillColor=#26272c;" vertex="1" parent="1">
                    <mxGeometry x="-290" y="310" width="80" height="80" as="geometry"/>
                </mxCell>
                <mxCell id="16" value="CategorySkils" style="rounded=0;whiteSpace=wrap;html=1;labelBorderColor=none;fontStyle=1;strokeColor=#000000;fontColor=#FFFFFF;fillColor=#26272c;" vertex="1" parent="1">
                    <mxGeometry x="-310" y="730" width="120" height="60" as="geometry"/>
                </mxCell>
                <mxCell id="19" style="edgeStyle=none;html=1;exitX=0.5;exitY=1;exitDx=0;exitDy=0;entryX=0.5;entryY=0;entryDx=0;entryDy=0;endArrow=none;endFill=0;labelBorderColor=none;fontStyle=1;fontColor=#FFFFFF;" edge="1" parent="1" source="17" target="16">
                    <mxGeometry relative="1" as="geometry"/>
                </mxCell>
                <mxCell id="71" value="1..1" style="edgeLabel;html=1;align=center;verticalAlign=middle;resizable=0;points=[];labelBorderColor=none;fontStyle=1;fontColor=#FFFFFF;labelBackgroundColor=#26272c;" vertex="1" connectable="0" parent="19">
                    <mxGeometry x="0.4857" y="-1" relative="1" as="geometry">
                        <mxPoint as="offset"/>
                    </mxGeometry>
                </mxCell>
                <mxCell id="17" value="has" style="rhombus;whiteSpace=wrap;html=1;labelBorderColor=none;fontStyle=1;strokeColor=#000000;fontColor=#FFFFFF;fillColor=#26272c;" vertex="1" parent="1">
                    <mxGeometry x="-290" y="580" width="80" height="80" as="geometry"/>
                </mxCell>
                <mxCell id="20" value="CategoryProjects" style="rounded=0;whiteSpace=wrap;html=1;labelBorderColor=none;fontStyle=1;strokeColor=#000000;fontColor=#FFFFFF;fillColor=#26272c;" vertex="1" parent="1">
                    <mxGeometry x="30" y="730" width="120" height="60" as="geometry"/>
                </mxCell>
                <mxCell id="21" style="edgeStyle=none;html=1;exitX=0.5;exitY=1;exitDx=0;exitDy=0;entryX=0.5;entryY=0;entryDx=0;entryDy=0;endArrow=none;endFill=0;labelBorderColor=none;fontStyle=1;fontColor=#FFFFFF;" edge="1" parent="1" source="22" target="20">
                    <mxGeometry relative="1" as="geometry"/>
                </mxCell>
                <mxCell id="72" value="1..1" style="edgeLabel;html=1;align=center;verticalAlign=middle;resizable=0;points=[];labelBorderColor=none;fontStyle=1;fontColor=#FFFFFF;labelBackgroundColor=#26272c;" vertex="1" connectable="0" parent="21">
                    <mxGeometry x="0.6286" y="-1" relative="1" as="geometry">
                        <mxPoint as="offset"/>
                    </mxGeometry>
                </mxCell>
                <mxCell id="65" style="edgeStyle=none;html=1;entryX=0.5;entryY=1;entryDx=0;entryDy=0;endArrow=none;endFill=0;labelBorderColor=none;fontStyle=1;fontColor=#FFFFFF;" edge="1" parent="1" source="22" target="4">
                    <mxGeometry relative="1" as="geometry"/>
                </mxCell>
                <mxCell id="73" value="1..n" style="edgeLabel;html=1;align=center;verticalAlign=middle;resizable=0;points=[];labelBorderColor=none;fontStyle=1;fontColor=#FFFFFF;labelBackgroundColor=#26272c;" vertex="1" connectable="0" parent="65">
                    <mxGeometry x="0.6333" y="-2" relative="1" as="geometry">
                        <mxPoint as="offset"/>
                    </mxGeometry>
                </mxCell>
                <mxCell id="22" value="has" style="rhombus;whiteSpace=wrap;html=1;labelBorderColor=none;fontStyle=1;strokeColor=#000000;fontColor=#FFFFFF;fillColor=#26272c;" vertex="1" parent="1">
                    <mxGeometry x="50" y="580" width="80" height="80" as="geometry"/>
                </mxCell>
                <mxCell id="25" style="edgeStyle=none;html=1;exitX=0;exitY=0;exitDx=0;exitDy=0;entryX=1;entryY=1;entryDx=0;entryDy=0;endArrow=none;endFill=0;labelBorderColor=none;fontStyle=1;fontColor=#FFFFFF;" edge="1" parent="1" source="24" target="4">
                    <mxGeometry relative="1" as="geometry"/>
                </mxCell>
                <mxCell id="74" value="1..n" style="edgeLabel;html=1;align=center;verticalAlign=middle;resizable=0;points=[];labelBorderColor=none;fontStyle=1;fontColor=#FFFFFF;labelBackgroundColor=#26272c;" vertex="1" connectable="0" parent="25">
                    <mxGeometry x="0.8037" y="1" relative="1" as="geometry">
                        <mxPoint as="offset"/>
                    </mxGeometry>
                </mxCell>
                <mxCell id="26" style="edgeStyle=none;html=1;exitX=0.5;exitY=1;exitDx=0;exitDy=0;entryX=0.5;entryY=0;entryDx=0;entryDy=0;endArrow=none;endFill=0;labelBorderColor=none;fontStyle=1;fontColor=#FFFFFF;" edge="1" parent="1" source="24" target="5">
                    <mxGeometry relative="1" as="geometry"/>
                </mxCell>
                <mxCell id="75" value="0..n" style="edgeLabel;html=1;align=center;verticalAlign=middle;resizable=0;points=[];labelBorderColor=none;fontStyle=1;fontColor=#FFFFFF;labelBackgroundColor=#26272c;" vertex="1" connectable="0" parent="26">
                    <mxGeometry x="0.6048" y="2" relative="1" as="geometry">
                        <mxPoint as="offset"/>
                    </mxGeometry>
                </mxCell>
                <mxCell id="24" value="own" style="rhombus;whiteSpace=wrap;html=1;labelBorderColor=none;fontStyle=1;strokeColor=#000000;fontColor=#FFFFFF;fillColor=#26272c;" vertex="1" parent="1">
                    <mxGeometry x="220" y="580" width="80" height="80" as="geometry"/>
                </mxCell>
                <mxCell id="31" style="edgeStyle=none;html=1;endArrow=none;endFill=0;labelBorderColor=none;fontStyle=1;fontColor=#FFFFFF;" edge="1" parent="1" source="27" target="2">
                    <mxGeometry relative="1" as="geometry"/>
                </mxCell>
                <mxCell id="27" value="projectid" style="ellipse;whiteSpace=wrap;html=1;labelBorderColor=none;fontStyle=1;strokeColor=#000000;fontColor=#FFFFFF;fillColor=#26272c;" vertex="1" parent="1">
                    <mxGeometry x="-40" y="230" width="80" height="60" as="geometry"/>
                </mxCell>
                <mxCell id="32" style="edgeStyle=none;html=1;endArrow=none;endFill=0;labelBorderColor=none;fontStyle=1;fontColor=#FFFFFF;" edge="1" parent="1" source="28" target="2">
                    <mxGeometry relative="1" as="geometry"/>
                </mxCell>
                <mxCell id="28" value="url" style="ellipse;whiteSpace=wrap;html=1;labelBorderColor=none;fontStyle=1;strokeColor=#000000;fontColor=#FFFFFF;fillColor=#26272c;" vertex="1" parent="1">
                    <mxGeometry x="-200" y="230" width="80" height="60" as="geometry"/>
                </mxCell>
                <mxCell id="30" style="edgeStyle=none;html=1;endArrow=none;endFill=0;labelBorderColor=none;fontStyle=1;fontColor=#FFFFFF;" edge="1" parent="1" source="29" target="2">
                    <mxGeometry relative="1" as="geometry"/>
                </mxCell>
                <mxCell id="29" value="name" style="ellipse;whiteSpace=wrap;html=1;labelBorderColor=none;fontStyle=1;strokeColor=#000000;fontColor=#FFFFFF;fillColor=#26272c;" vertex="1" parent="1">
                    <mxGeometry x="-120" y="200" width="80" height="60" as="geometry"/>
                </mxCell>
                <mxCell id="37" style="edgeStyle=none;html=1;endArrow=none;endFill=0;labelBorderColor=none;fontStyle=1;fontColor=#FFFFFF;" edge="1" parent="1" source="33" target="3">
                    <mxGeometry relative="1" as="geometry"/>
                </mxCell>
                <mxCell id="33" value="name" style="ellipse;whiteSpace=wrap;html=1;labelBorderColor=none;fontStyle=1;strokeColor=#000000;fontColor=#FFFFFF;fillColor=#26272c;" vertex="1" parent="1">
                    <mxGeometry x="-380" y="350" width="80" height="60" as="geometry"/>
                </mxCell>
                <mxCell id="38" style="edgeStyle=none;html=1;endArrow=none;endFill=0;labelBorderColor=none;fontStyle=1;fontColor=#FFFFFF;" edge="1" parent="1" source="34" target="3">
                    <mxGeometry relative="1" as="geometry"/>
                </mxCell>
                <mxCell id="34" value="priority" style="ellipse;whiteSpace=wrap;html=1;labelBorderColor=none;fontStyle=1;strokeColor=#000000;fontColor=#FFFFFF;fillColor=#26272c;" vertex="1" parent="1">
                    <mxGeometry x="-460" y="380" width="80" height="60" as="geometry"/>
                </mxCell>
                <mxCell id="39" style="edgeStyle=none;html=1;exitX=1;exitY=0.5;exitDx=0;exitDy=0;endArrow=none;endFill=0;labelBorderColor=none;fontStyle=1;fontColor=#FFFFFF;" edge="1" parent="1" source="35" target="3">
                    <mxGeometry relative="1" as="geometry"/>
                </mxCell>
                <mxCell id="35" value="level" style="ellipse;whiteSpace=wrap;html=1;labelBorderColor=none;fontStyle=1;strokeColor=#000000;fontColor=#FFFFFF;fillColor=#26272c;" vertex="1" parent="1">
                    <mxGeometry x="-470" y="450" width="80" height="60" as="geometry"/>
                </mxCell>
                <mxCell id="42" style="edgeStyle=none;html=1;endArrow=none;endFill=0;labelBorderColor=none;fontStyle=1;fontColor=#FFFFFF;" edge="1" parent="1" source="36" target="3">
                    <mxGeometry relative="1" as="geometry"/>
                </mxCell>
                <mxCell id="36" value="decription&lt;span style=&quot;font-family: monospace; font-size: 0px; text-align: start;&quot;&gt;%3CmxGraphModel%3E%3Croot%3E%3CmxCell%20id%3D%220%22%2F%3E%3CmxCell%20id%3D%221%22%20parent%3D%220%22%2F%3E%3CmxCell%20id%3D%222%22%20value%3D%22priority%22%20style%3D%22ellipse%3BwhiteSpace%3Dwrap%3Bhtml%3D1%3B%22%20vertex%3D%221%22%20parent%3D%221%22%3E%3CmxGeometry%20x%3D%2210%22%20y%3D%22180%22%20width%3D%2280%22%20height%3D%2260%22%20as%3D%22geometry%22%2F%3E%3C%2FmxCell%3E%3C%2Froot%3E%3C%2FmxGraphModel%3E&lt;/span&gt;" style="ellipse;whiteSpace=wrap;html=1;labelBorderColor=none;fontStyle=1;strokeColor=#000000;fontColor=#FFFFFF;fillColor=#26272c;" vertex="1" parent="1">
                    <mxGeometry x="-460" y="520" width="80" height="60" as="geometry"/>
                </mxCell>
                <mxCell id="43" value="icon" style="ellipse;whiteSpace=wrap;html=1;labelBorderColor=none;fontStyle=1;strokeColor=#000000;fontColor=#FFFFFF;fillColor=#26272c;" vertex="1" parent="1">
                    <mxGeometry x="-380" y="550" width="80" height="60" as="geometry"/>
                </mxCell>
                <mxCell id="44" value="" style="endArrow=none;html=1;labelBorderColor=none;fontStyle=1;fontColor=#FFFFFF;" edge="1" parent="1" source="43" target="3">
                    <mxGeometry width="50" height="50" relative="1" as="geometry">
                        <mxPoint x="-330" y="490" as="sourcePoint"/>
                        <mxPoint x="-280" y="440" as="targetPoint"/>
                    </mxGeometry>
                </mxCell>
                <mxCell id="46" value="" style="edgeStyle=none;html=1;endArrow=none;endFill=0;labelBorderColor=none;fontStyle=1;fontColor=#FFFFFF;" edge="1" parent="1" source="45" target="16">
                    <mxGeometry relative="1" as="geometry"/>
                </mxCell>
                <mxCell id="45" value="name" style="ellipse;whiteSpace=wrap;html=1;labelBorderColor=none;fontStyle=1;strokeColor=#000000;fontColor=#FFFFFF;fillColor=#26272c;" vertex="1" parent="1">
                    <mxGeometry x="-290" y="830" width="80" height="60" as="geometry"/>
                </mxCell>
                <mxCell id="48" value="" style="edgeStyle=none;html=1;endArrow=none;endFill=0;labelBorderColor=none;fontStyle=1;fontColor=#FFFFFF;" edge="1" parent="1" source="47" target="5">
                    <mxGeometry relative="1" as="geometry"/>
                </mxCell>
                <mxCell id="47" value="mobile" style="ellipse;whiteSpace=wrap;html=1;labelBorderColor=none;fontStyle=1;strokeColor=#000000;fontColor=#FFFFFF;fillColor=#26272c;" vertex="1" parent="1">
                    <mxGeometry x="340" y="800" width="80" height="60" as="geometry"/>
                </mxCell>
                <mxCell id="51" value="" style="edgeStyle=none;html=1;endArrow=none;endFill=0;labelBorderColor=none;fontStyle=1;fontColor=#FFFFFF;" edge="1" parent="1" source="49" target="5">
                    <mxGeometry relative="1" as="geometry"/>
                </mxCell>
                <mxCell id="49" value="tablet" style="ellipse;whiteSpace=wrap;html=1;labelBorderColor=none;fontStyle=1;strokeColor=#000000;fontColor=#FFFFFF;fillColor=#26272c;" vertex="1" parent="1">
                    <mxGeometry x="260" y="830" width="80" height="60" as="geometry"/>
                </mxCell>
                <mxCell id="52" value="" style="edgeStyle=none;html=1;endArrow=none;endFill=0;labelBorderColor=none;fontStyle=1;fontColor=#FFFFFF;" edge="1" parent="1" source="50" target="5">
                    <mxGeometry relative="1" as="geometry"/>
                </mxCell>
                <mxCell id="50" value="desktop" style="ellipse;whiteSpace=wrap;html=1;labelBorderColor=none;fontStyle=1;strokeColor=#000000;fontColor=#FFFFFF;fillColor=#26272c;" vertex="1" parent="1">
                    <mxGeometry x="170" y="830" width="80" height="60" as="geometry"/>
                </mxCell>
                <mxCell id="54" value="" style="edgeStyle=none;html=1;endArrow=none;endFill=0;labelBorderColor=none;fontStyle=1;fontColor=#FFFFFF;" edge="1" parent="1" source="53" target="20">
                    <mxGeometry relative="1" as="geometry"/>
                </mxCell>
                <mxCell id="53" value="name" style="ellipse;whiteSpace=wrap;html=1;labelBorderColor=none;fontStyle=1;strokeColor=#000000;fontColor=#FFFFFF;fillColor=#26272c;" vertex="1" parent="1">
                    <mxGeometry x="50" y="830" width="80" height="60" as="geometry"/>
                </mxCell>
                <mxCell id="56" value="" style="edgeStyle=none;html=1;endArrow=none;endFill=0;labelBorderColor=none;fontStyle=1;fontColor=#FFFFFF;" edge="1" parent="1" source="55" target="4">
                    <mxGeometry relative="1" as="geometry"/>
                </mxCell>
                <mxCell id="55" value="title" style="ellipse;whiteSpace=wrap;html=1;labelBorderColor=none;fontStyle=1;strokeColor=#000000;fontColor=#FFFFFF;fillColor=#26272c;" vertex="1" parent="1">
                    <mxGeometry x="160" y="290" width="80" height="60" as="geometry"/>
                </mxCell>
                <mxCell id="58" style="edgeStyle=none;html=1;endArrow=none;endFill=0;labelBorderColor=none;fontStyle=1;fontColor=#FFFFFF;" edge="1" parent="1" source="57" target="4">
                    <mxGeometry relative="1" as="geometry"/>
                </mxCell>
                <mxCell id="57" value="introduction" style="ellipse;whiteSpace=wrap;html=1;labelBorderColor=none;fontStyle=1;strokeColor=#000000;fontColor=#FFFFFF;fillColor=#26272c;" vertex="1" parent="1">
                    <mxGeometry x="250" y="290" width="80" height="60" as="geometry"/>
                </mxCell>
                <mxCell id="60" value="" style="edgeStyle=none;html=1;endArrow=none;endFill=0;labelBorderColor=none;fontStyle=1;fontColor=#FFFFFF;" edge="1" parent="1" source="59" target="4">
                    <mxGeometry relative="1" as="geometry"/>
                </mxCell>
                <mxCell id="59" value="why" style="ellipse;whiteSpace=wrap;html=1;labelBorderColor=none;fontStyle=1;strokeColor=#000000;fontColor=#FFFFFF;fillColor=#26272c;" vertex="1" parent="1">
                    <mxGeometry x="250" y="360" width="80" height="60" as="geometry"/>
                </mxCell>
                <mxCell id="62" value="" style="edgeStyle=none;html=1;endArrow=none;endFill=0;labelBorderColor=none;fontStyle=1;fontColor=#FFFFFF;" edge="1" parent="1" source="61" target="4">
                    <mxGeometry relative="1" as="geometry"/>
                </mxCell>
                <mxCell id="61" value="knowledge" style="ellipse;whiteSpace=wrap;html=1;labelBorderColor=none;fontStyle=1;strokeColor=#000000;fontColor=#FFFFFF;fillColor=#26272c;" vertex="1" parent="1">
                    <mxGeometry x="250" y="430" width="80" height="60" as="geometry"/>
                </mxCell>
                <mxCell id="64" value="" style="edgeStyle=none;html=1;endArrow=none;endFill=0;labelBorderColor=none;fontStyle=1;fontColor=#FFFFFF;" edge="1" parent="1" source="63" target="4">
                    <mxGeometry relative="1" as="geometry"/>
                </mxCell>
                <mxCell id="63" value="additional info" style="ellipse;whiteSpace=wrap;html=1;labelBorderColor=none;fontStyle=1;strokeColor=#000000;fontColor=#FFFFFF;fillColor=#26272c;" vertex="1" parent="1">
                    <mxGeometry x="250" y="500" width="80" height="60" as="geometry"/>
                </mxCell>
            </root>
        </mxGraphModel>
    </diagram>
</mxfile>